<?xml version="1.0" encoding="utf-8"?>
<!-- Generator: Adobe Illustrator 16.0.0, SVG Export Plug-In . SVG Version: 6.00 Build 0)  -->
<!DOCTYPE svg PUBLIC "-//W3C//DTD SVG 1.1//EN" "http://www.w3.org/Graphics/SVG/1.1/DTD/svg11.dtd">
<svg version="1.1" id="Calque_1" xmlns="http://www.w3.org/2000/svg" xmlns:xlink="http://www.w3.org/1999/xlink" x="0px" y="0px"
	 width="1920px" height="1080px" viewBox="0 0 1920 1080" enable-background="new 0 0 1920 1080" xml:space="preserve">
<g>
	<path fill="#FFFFFF" d="M713.877,491.567c39.324,0,60.87,28.821,60.87,65.182c0,4.039-0.806,12.659-0.806,12.659h-94.809
		c2.692,24.239,20.47,36.898,41.209,36.898c22.086,0,38.514-15.352,38.514-15.352l14.275,23.698c0,0-21.006,20.743-55.215,20.743
		c-45.519,0-73.799-32.862-73.799-71.912C644.117,521.194,672.668,491.567,713.877,491.567z M739.732,545.703
		c-0.537-16.428-11.85-27.741-25.855-27.741c-17.507,0-29.897,10.507-33.669,27.741H739.732z"/>
	<path fill="#FFFFFF" d="M814.867,476.752c0-3.769-2.156-5.925-5.925-5.925h-11.583v-29.893h34.476
		c12.929,0,18.313,5.654,18.313,18.313V596.34c0,3.771,2.156,5.925,5.928,5.925h41.747c3.771,0,5.924-2.153,5.924-5.925v-11.58
		H935.8v29.088c0,12.929-5.388,18.316-18.317,18.316h-84.302c-12.925,0-18.313-5.388-18.313-18.316V476.752z"/>
	<path fill="#FFFFFF" d="M1031.675,545.973h4.309v-1.076c0-19.66-7.811-26.935-25.314-26.935c-6.194,0-18.317,1.62-18.317,9.157
		v7.274h-31.779v-14.545c0-25.584,36.091-28.281,50.363-28.281c45.788,0,59.257,23.972,59.257,54.676v51.176
		c0,3.772,2.152,5.925,5.925,5.925h10.773v28.82h-30.703c-12.66,0-17.508-7.004-17.508-15.085c0-3.498,0.27-5.925,0.27-5.925h-0.54
		c0,0-10.503,24.242-41.479,24.242c-24.508,0-46.864-15.354-46.864-42.825C950.065,549.475,1009.322,545.973,1031.675,545.973z
		 M1005.28,608.729c18.313,0,31.243-19.39,31.243-36.088v-3.232h-5.925c-17.777,0-46.058,2.423-46.058,21.547
		C984.541,600.111,991.275,608.729,1005.28,608.729z"/>
	<path fill="#FFFFFF" d="M1115.971,475.946c0-4.039-2.153-5.925-5.926-5.925h-10.772v-29.087h32.589
		c12.659,0,18.317,5.654,18.317,18.313v39.86c0,6.734-0.54,11.583-0.54,11.583h0.54c0,0,12.12-19.124,41.206-19.124
		c37.172,0,60.87,29.357,60.87,71.917c0,43.632-26.664,71.912-63.022,71.912c-28.551,0-40.939-19.394-40.939-19.394h-0.54
		c0,0,0.54,3.772,0.54,9.157v7.004h-32.322V475.946z M1183.305,606.576c18.587,0,34.475-15.352,34.475-42.556
		c0-26.125-14.005-43.096-34.205-43.096c-17.773,0-34.475,12.929-34.475,43.366C1149.1,585.566,1160.412,606.576,1183.305,606.576z"
		/>
	<path fill="#FFFFFF" d="M1290.492,470.828h-17.508v-29.893h109.084c12.926,0,18.314,5.654,18.314,18.313v29.091H1368.6v-11.586
		c0-3.769-2.152-5.925-5.925-5.925h-36.901v54.139h61.141v29.896h-61.141v77.301h-35.281V470.828z"/>
	<path fill="#FFFFFF" d="M1478.477,470.828h-29.357c-3.771,0-5.925,2.156-5.925,5.925v11.586h-30.977v-30.17
		c0-12.659,4.313-17.234,17.238-17.234h133.322c12.929,0,17.237,4.575,17.237,17.234v30.17h-30.973v-11.586
		c0-3.769-2.156-5.925-5.925-5.925h-29.356v161.336h-35.285V470.828z"/>
	<path fill="#FFFFFF" d="M1606.667,476.752c-1.077-4.575-4.039-5.925-8.617-5.925h-5.118v-29.893h22.896
		c13.462,0,20.736,3.232,23.698,15.621l26.129,113.929c2.422,10.773,3.232,20.2,3.232,20.2h0.532c0,0,1.08-9.157,4.042-20.2
		l34.746-129.014h29.899l32.856,129.014c2.962,11.043,3.771,20.2,3.771,20.2h0.54c0,0,0.803-9.427,3.231-20.2l26.393-113.929
		c2.691-12.389,9.966-15.621,23.436-15.621h23.158v29.893h-5.115c-4.845,0-7.544,1.35-8.617,5.925l-39.867,155.412h-40.669
		l-29.084-108.277c-3.231-12.119-4.852-23.699-4.852-23.699h-0.54c0,0-1.613,11.31-5.115,23.699L1687.2,632.164h-40.94
		L1606.667,476.752z"/>
</g>
<g>
	<g>
		<polygon fill="#FFFFFF" points="310.757,797.979 311.044,797.813 310.47,797.813 		"/>
	</g>
	<g>
		<path fill="#FFFFFF" d="M314.366,810.217h-7.219L68.295,672.318V392.347l209.783-121.124v171.411l-7.451,3.246
			c-36.14,15.742-59.492,51.367-59.492,90.756c0,54.568,44.394,98.962,98.961,98.962c54.564,0,98.958-44.394,98.958-98.962
			c0-39.393-23.353-75.014-59.493-90.756l-7.451-3.246V270.461l211.115,121.885v279.972L314.366,810.217z M93.101,657.998
			l217.656,125.661L528.42,657.998V406.667l-161.503-93.238v113.25c40.926,21.152,66.943,63.455,66.943,109.956
			c0,68.245-55.52,123.768-123.765,123.768c-68.244,0-123.768-55.522-123.768-123.768c0-46.498,26.018-88.801,66.943-109.956V314.19
			l-160.17,92.477V657.998z"/>
	</g>
	<g>
		<line fill="#FFFFFF" x1="530.393" y1="671.18" x2="540.823" y2="665.158"/>
	</g>
	<g>
		<path fill="#FFFFFF" d="M80.698,430.327"/>
	</g>
</g>
<path fill="#FFFFFF" d="M387.203,498.666H234.317c-5.852,11.586-9.171,24.667-9.171,38.538c0,47.28,38.331,85.61,85.614,85.61
	s85.613-38.33,85.613-85.61C396.374,523.333,393.056,510.252,387.203,498.666z M273.229,532.331
	c-6.361,0-11.518-5.157-11.518-11.518c0-6.36,5.157-11.517,11.518-11.517c6.36,0,11.517,5.156,11.517,11.517
	C284.747,527.174,279.59,532.331,273.229,532.331z M313.366,559.252c-7.679,0-13.905-6.227-13.905-13.902
	c0-7.683,6.226-13.905,13.905-13.905c7.68,0,13.905,6.222,13.905,13.905C327.271,553.025,321.046,559.252,313.366,559.252z
	 M350.306,534.989c-7.828,0-14.175-6.347-14.175-14.175c0-7.828,6.347-14.175,14.175-14.175s14.175,6.347,14.175,14.175
	C364.48,528.642,358.134,534.989,350.306,534.989z"/>
<path fill="#FFFFFF" d="M337.902,466.502c0,7.676-6.226,13.901-13.905,13.901s-13.905-6.226-13.905-13.901
	c0-7.683,6.226-13.905,13.905-13.905S337.902,458.819,337.902,466.502z"/>
<path fill="#FFFFFF" d="M303.323,476.233c0,5.371-4.36,9.731-9.731,9.731c-5.378,0-9.731-4.36-9.731-9.731
	c0-5.378,4.354-9.731,9.731-9.731C298.963,466.502,303.323,470.855,303.323,476.233z"/>
</svg>
